# xmcd
#
# Track frame offsets:
# 150
# 12625
# 25332
# 36357
# 47327
# 58160
# 70592
# 80822
# 91845
# 93732
# 103687
# 117512
# 128885
# 141100
# 154332
# 162987
# 174692
# 176307
# 186400
# 200132
# 209975
# 223200
# 234697
# 244737
# 258935
# 260162
# 268802
# 298222
#
# Disc length: 4535 seconds
#
# Revision: 0
# Processed by: cddbd v1.5PL3 Copyright (c) Steve Scherf et al.
# Submitted via: Audion 3.0.2 (http://www.panic.com/audion/)
#
DISCID=c311b51c
DTITLE=Rudy Ray Moore - Hully Gully Fever
DYEAR=1900
DGENRE=
TTITLE0=I'm Mad Wth You
TTITLE1=My Little Angel
TTITLE2=The Buggy Ride
TTITLE3=Ring A-Ling Dong
TTITLE4=Step It Up And Go
TTITLE5=Let Me Come Home
TTITLE6=Robbie Dobbie
TTITLE7=I'll Be Home To See You Tomorrow
TTITLE8=Dolphin's Record Shop Radio Spot, KGFJ
TTITLE9=Josephine
TTITLE10=Hurts Me To My Heart
TTITLE11=Ready Willing And Able
TTITLE12=My Soul
TTITLE13=So Good To Me
TTITLE14=Hully Gully Fever (And The Flu Bug Too)
TTITLE15=Driveway Blues
TTITLE16=Herman Griffith Radio Spot, KGFJ
TTITLE17=Rally In The Valley
TTITLE18=Hully Gully Papa
TTITLE19=Scotch Fever
TTITLE20=Whatcha Gonna Do (Nugetre)
TTITLE21=Ballad Of A Boy And A Girl (Undubbed)
TTITLE22=Angels On Earth
TTITLE23=Don't Go No Farther (alternate take)
TTITLE24=Lonnie Johnson Radio Spot, KGFJ
TTITLE25=Baby That's Why I'm Your Fool
TTITLE26=Hurt's Me To My Heart
TTITLE27=Bring It On Home To Me/I'm In Love Again
EXTD=
EXTT0=
EXTT1=
EXTT2=
EXTT3=
EXTT4=
EXTT5=
EXTT6=
EXTT7=
EXTT8=
EXTT9=
EXTT10=
EXTT11=
EXTT12=
EXTT13=
EXTT14=
EXTT15=
EXTT16=
EXTT17=
EXTT18=
EXTT19=
EXTT20=
EXTT21=
EXTT22=
EXTT23=
EXTT24=
EXTT25=
EXTT26=
EXTT27=
PLAYORDER=
